<?xml version="1.0" encoding="utf-8"?>
<!-- Generator: Adobe Illustrator 18.0.0, SVG Export Plug-In . SVG Version: 6.00 Build 0)  -->
<!DOCTYPE svg PUBLIC "-//W3C//DTD SVG 1.1//EN" "http://www.w3.org/Graphics/SVG/1.1/DTD/svg11.dtd">
<svg version="1.1" id="图层_1" xmlns="http://www.w3.org/2000/svg" xmlns:xlink="http://www.w3.org/1999/xlink" x="0px" y="0px"
	 viewBox="200 200 600 600" enable-background="new 0 0 1024 1024" xml:space="preserve">
<rect x="98.8" y="63" fill="none" width="16" height="16"/>
<rect x="96.9" y="48" fill="none" width="16" height="16"/>
<path fill="#CCCCCC" d="M998.5,576.8"/>
<polygon fill="none" points="15.4,485.5 1013.4,485.5 1013.4,580.3 513.4,580.3 "/>
<g>
	<path fill="#84D786" d="M512.5,703.4c-105.8,0-191.8-86-191.8-191.8s86-191.8,191.8-191.8c105.8,0,191.8,86,191.8,191.8
		S618.2,703.4,512.5,703.4z M512.5,438.7c-40.2,0-72.9,32.7-72.9,72.9s32.7,72.9,72.9,72.9s72.9-32.7,72.9-72.9
		S552.7,438.7,512.5,438.7z"/>
</g>
</svg>
